<svg width="24" height="24" viewBox="0 0 24 24" fill="none" xmlns="http://www.w3.org/2000/svg">
<path d="M7.12001 11.084C7.04862 10.991 6.9545 10.918 6.84672 10.872C6.73894 10.8259 6.62113 10.8084 6.50461 10.821C6.38809 10.8337 6.27679 10.8761 6.18141 10.9442C6.08603 11.0124 6.00979 11.1039 5.96001 11.21L0.0750117 22.974C0.0212339 23.0813 -0.0041792 23.2006 0.00119301 23.3205C0.00656522 23.4404 0.0425438 23.5569 0.105702 23.6589C0.16886 23.761 0.257095 23.8452 0.362001 23.9035C0.466908 23.9618 0.584994 23.9922 0.705012 23.992H8.89501C9.02654 23.9951 9.15613 23.9599 9.268 23.8907C9.37986 23.8214 9.46916 23.7211 9.52501 23.602C11.292 19.952 10.221 14.399 7.11901 11.082L7.12001 11.084ZM11.434 0.385984C9.96812 2.64147 9.11384 5.23934 8.955 7.92465C8.79617 10.6099 9.33824 13.2904 10.528 15.703L14.478 23.603C14.5364 23.7195 14.6261 23.8175 14.737 23.886C14.8479 23.9546 14.9757 23.9909 15.106 23.991H23.296C23.4159 23.9912 23.5338 23.9607 23.6386 23.9024C23.7434 23.8442 23.8315 23.7601 23.8947 23.6582C23.9578 23.5563 23.9938 23.4399 23.9993 23.3202C24.0048 23.2004 23.9796 23.0812 23.926 22.974L12.63 0.379984C12.5752 0.267775 12.4898 0.173309 12.3837 0.107435C12.2776 0.0415612 12.155 0.00695016 12.0301 0.00757672C11.9052 0.00820328 11.783 0.044042 11.6776 0.110977C11.5722 0.177912 11.4877 0.27323 11.434 0.385984V0.385984Z" fill="#F24E1E"/>
</svg>
