<svg width="101" height="85" viewBox="0 0 101 85" fill="none" xmlns="http://www.w3.org/2000/svg">
<rect width="100.436" height="85" rx="20" fill="white"/>
<path d="M30.9322 34.4189C30.9322 35.532 31.0464 36.4343 31.2455 37.096C31.4984 37.8405 31.8028 38.5642 32.1564 39.2614C32.2988 39.502 32.3556 39.7426 32.3556 39.9533C32.3556 40.2538 32.1849 40.5547 31.8148 40.8556L30.0213 42.1188C29.765 42.2994 29.5088 42.3895 29.2807 42.3895C28.9962 42.3895 28.7114 42.239 28.4266 41.9683C28.043 41.5328 27.6999 41.0594 27.4019 40.5547C27.1171 40.0438 26.8322 39.4718 26.5192 38.7803C24.2985 41.5472 21.5081 42.9309 18.1487 42.9309C15.7574 42.9309 13.8496 42.2089 12.4545 40.7655C11.0596 39.3214 10.3479 37.3965 10.3479 34.9905C10.3479 32.4341 11.202 30.3588 12.9388 28.7947C14.6752 27.2307 16.9816 26.4487 19.9141 26.4487C20.882 26.4487 21.8785 26.5388 22.9318 26.6893C23.9854 26.8397 25.0673 27.0803 26.2062 27.351V25.1554C26.2062 22.8693 25.7504 21.2755 24.8678 20.343C23.9569 19.4106 22.4193 18.9592 20.2271 18.9592C19.2306 18.9592 18.2058 19.0799 17.1522 19.3506C16.0989 19.621 15.0739 19.952 14.0774 20.3732C13.6219 20.5836 13.2804 20.7039 13.0808 20.7642C12.8817 20.8245 12.7393 20.8543 12.6254 20.8543C12.2267 20.8543 12.0276 20.5534 12.0276 19.9219V18.448C12.0276 17.9668 12.0847 17.606 12.2267 17.3956C12.3691 17.1848 12.6254 16.9744 13.0241 16.764C14.0206 16.2226 15.2163 15.7712 16.6111 15.4104C18.0067 15.0194 19.4872 14.8391 21.053 14.8391C24.4412 14.8391 26.9182 15.6509 28.5126 17.2753C30.0784 18.8993 30.8757 21.3656 30.8757 24.6743V34.4189H30.9328H30.9322ZM19.373 38.9907C20.3127 38.9907 21.2807 38.8105 22.3054 38.4493C23.3305 38.0884 24.2417 37.4267 25.0102 36.5244C25.4659 35.9531 25.8075 35.3216 25.9781 34.5995C26.1491 33.8778 26.2629 33.0053 26.2629 31.9827V30.7196C25.3995 30.4976 24.525 30.3269 23.6435 30.2083C22.7559 30.0892 21.8621 30.0289 20.9673 30.0277C19.0596 30.0277 17.6648 30.4187 16.7253 31.2309C15.7856 32.0431 15.3301 33.1859 15.3301 34.6896C15.3301 36.1032 15.6717 37.156 16.3834 37.878C17.0669 38.6299 18.0634 38.9907 19.373 38.9907ZM42.2351 42.239C41.7226 42.239 41.381 42.1489 41.1533 41.9382C40.9255 41.7579 40.726 41.3367 40.5554 40.7655L33.865 17.5159C33.6937 16.9141 33.6084 16.5231 33.6084 16.3127C33.6084 15.8315 33.8361 15.5605 34.2918 15.5605H37.0819C37.6226 15.5605 37.9931 15.6509 38.1923 15.8614C38.42 16.042 38.5909 16.4631 38.7616 17.0344L43.5446 36.9455L47.9861 17.0344C48.1285 16.433 48.2995 16.042 48.5269 15.8614C48.7549 15.6811 49.1536 15.5608 49.6661 15.5608H51.9437C52.4844 15.5608 52.8549 15.6509 53.0822 15.8614C53.3103 16.042 53.5095 16.4631 53.6233 17.0344L58.1219 37.1861L63.0471 17.0344C63.2177 16.433 63.4172 16.042 63.6164 15.8614C63.8441 15.6811 64.2142 15.5608 64.7267 15.5608H67.3744C67.8302 15.5608 68.0864 15.8014 68.0864 16.3127C68.0864 16.4631 68.0579 16.6136 68.0293 16.7938C68.0008 16.9744 67.944 17.215 67.8302 17.546L60.9684 40.7953C60.7978 41.3971 60.5986 41.7881 60.3706 41.9683C60.1428 42.1489 59.7727 42.2692 59.2891 42.2692H56.8406C56.2995 42.2692 55.9294 42.1791 55.7013 41.9683C55.4736 41.7579 55.2744 41.3669 55.1606 40.7655L50.7473 21.3656L46.3629 40.735C46.2208 41.3367 46.0499 41.7277 45.8221 41.9382C45.5944 42.1489 45.1958 42.239 44.6836 42.239H42.2348H42.2351ZM78.82 43.0512C77.3395 43.0512 75.859 42.8706 74.4356 42.5098C73.0119 42.1489 71.9019 41.7576 71.1616 41.3069C70.7058 41.0359 70.3925 40.7353 70.279 40.4646C70.1681 40.1991 70.1099 39.9124 70.108 39.6223V38.0884C70.108 37.4568 70.3357 37.156 70.7629 37.156C70.9373 37.1566 71.1104 37.1872 71.2755 37.2464C71.4461 37.3068 71.7024 37.4267 71.9872 37.547C72.9928 38.0142 74.0425 38.3671 75.1188 38.5997C76.234 38.8388 77.3691 38.9597 78.507 38.9605C80.3005 38.9605 81.6957 38.6299 82.6637 37.9681C83.6317 37.3064 84.1442 36.3441 84.1442 35.1108C84.1442 34.2688 83.8879 33.5769 83.3754 33.0053C82.8629 32.4341 81.8949 31.9228 80.5001 31.4413L76.3716 30.088C74.2932 29.3961 72.756 28.3736 71.8162 27.0199C70.8768 25.6965 70.3928 24.2229 70.3928 22.6589C70.3928 21.3958 70.6491 20.2827 71.1616 19.3201C71.6738 18.3578 72.3573 17.5159 73.2114 16.8541C74.0655 16.1622 75.0335 15.6509 76.1724 15.2901C77.311 14.9293 78.5067 14.7788 79.7595 14.7788C80.3859 14.7788 81.0408 14.809 81.6672 14.8991C82.3221 14.9892 82.92 15.1095 83.5178 15.2298C84.0871 15.3802 84.6282 15.5307 85.1407 15.7113C85.6533 15.8915 86.0516 16.0721 86.3364 16.2524C86.7351 16.4933 87.0196 16.7338 87.1905 17.0046C87.3615 17.2451 87.4468 17.5758 87.4468 17.997V19.4106C87.4468 20.0421 87.2191 20.3732 86.7918 20.3732C86.5641 20.3732 86.194 20.2525 85.7104 20.012C84.0871 19.23 82.265 18.839 80.2438 18.839C78.6209 18.839 77.3395 19.1097 76.4569 19.6813C75.5746 20.2525 75.1188 21.125 75.1188 22.358C75.1188 23.2004 75.4036 23.922 75.9729 24.4937C76.5425 25.0649 77.5958 25.6365 79.1049 26.1478L83.1477 27.5014C85.1975 28.1933 86.678 29.1556 87.5606 30.3886C88.4433 31.6219 88.8705 33.0355 88.8705 34.5995C88.8705 35.8928 88.6139 37.0658 88.1299 38.0884C87.6177 39.111 86.9343 40.0133 86.0516 40.7353C85.1689 41.4872 84.1157 42.0286 82.8914 42.4196C81.6101 42.8408 80.272 43.0512 78.82 43.0512V43.0512Z" fill="#252F3E"/>
<path d="M84.2906 58.0987C74.8995 65.4784 61.2546 69.3959 49.5228 69.3959C33.0805 69.3959 18.2658 62.9273 7.07611 52.1768C6.19115 51.3267 6.99024 50.1728 8.04627 50.8406C20.1495 58.3115 35.0788 62.8363 50.5219 62.8363C60.9407 62.8363 72.3874 60.5284 82.9207 55.7909C84.4906 55.0314 85.8322 56.8843 84.2906 58.0987V58.0987ZM88.2016 53.3612C87.0027 51.7215 80.2658 52.5716 77.2116 52.9664C76.298 53.0882 76.1552 52.2377 76.9832 51.6001C82.3496 47.5912 91.1703 48.7455 92.1977 50.0814C93.2254 51.4482 91.9121 60.8318 86.8882 65.3265C86.1178 66.0251 85.3756 65.6607 85.7181 64.7497C86.8596 61.7429 89.4004 54.9708 88.2016 53.3612V53.3612Z" fill="#FF9900"/>
</svg>
