<svg width="165" height="133" viewBox="0 0 165 133" fill="none" xmlns="http://www.w3.org/2000/svg">
<rect width="165" height="132.284" rx="20" fill="white"/>
<path d="M50.8166 53.5656C50.8166 55.2979 51.0042 56.7021 51.3314 57.732C51.7468 58.8906 52.247 60.017 52.8279 61.102C53.0618 61.4764 53.155 61.8508 53.155 62.1788C53.155 62.6465 52.8747 63.1148 52.2667 63.583L49.3202 65.5488C48.8992 65.8299 48.4782 65.9702 48.1035 65.9702C47.6362 65.9702 47.1683 65.736 46.7004 65.3147C46.0703 64.6369 45.5065 63.9002 45.0169 63.1148C44.549 62.3196 44.0811 61.4295 43.5669 60.3532C39.9185 64.6592 35.3344 66.8128 29.8155 66.8128C25.8869 66.8128 22.7528 65.6891 20.4607 63.4428C18.1692 61.1953 17 58.1997 17 54.4552C17 50.4767 18.4032 47.2469 21.2564 44.8128C24.1091 42.3787 27.8981 41.1617 32.7157 41.1617C34.3059 41.1617 35.943 41.302 37.6733 41.5361C39.4043 41.7702 41.1815 42.1446 43.0526 42.5659V39.1489C43.0526 35.5912 42.3038 33.1107 40.8538 31.6595C39.3574 30.2084 36.8313 29.506 33.2299 29.506C31.5928 29.506 29.9093 29.6937 28.1784 30.115C26.448 30.5358 24.764 31.051 23.1269 31.7065C22.3787 32.0339 21.8175 32.2211 21.4898 32.315C21.1626 32.4089 20.9286 32.4552 20.7416 32.4552C20.0866 32.4552 19.7594 31.987 19.7594 31.0041V28.7102C19.7594 27.9615 19.8532 27.3999 20.0866 27.0724C20.3206 26.7444 20.7416 26.417 21.3965 26.0895C23.0337 25.2469 24.998 24.5445 27.2895 23.9829C29.5821 23.3744 32.0143 23.0939 34.5867 23.0939C40.153 23.0939 44.2224 24.3573 46.8416 26.8852C49.414 29.4126 50.7239 33.2509 50.7239 38.4002V53.5656H50.8177H50.8166ZM31.8267 60.6807C33.3706 60.6807 34.9608 60.4002 36.6443 59.838C38.3283 59.2764 39.8253 58.2466 41.0877 56.8424C41.8365 55.9533 42.3976 54.9704 42.6779 53.8467C42.9588 52.7235 43.1459 51.3657 43.1459 49.7743V47.8085C41.7274 47.463 40.2907 47.1973 38.8426 47.0128C37.3843 46.8274 35.916 46.7335 34.446 46.7317C31.3119 46.7317 29.0204 47.3402 27.4771 48.6042C25.9332 49.8682 25.185 51.6468 25.185 53.987C25.185 56.1869 25.7462 57.8253 26.9154 58.949C28.0383 60.1191 29.6754 60.6807 31.8267 60.6807ZM69.3855 65.736C68.5435 65.736 67.9823 65.5958 67.6082 65.2678C67.2341 64.9872 66.9064 64.3318 66.6261 63.4428L55.6347 27.2596C55.3533 26.3231 55.2132 25.7146 55.2132 25.3871C55.2132 24.6384 55.5873 24.2165 56.336 24.2165H60.9196C61.808 24.2165 62.4166 24.3573 62.7438 24.6847C63.1179 24.9658 63.3988 25.6213 63.6791 26.5103L71.5369 57.4978L78.8335 26.5103C79.0675 25.5743 79.3484 24.9658 79.7219 24.6847C80.0966 24.4042 80.7515 24.217 81.5935 24.217H85.3351C86.2235 24.217 86.8321 24.3573 87.2056 24.6847C87.5803 24.9658 87.9075 25.6213 88.0945 26.5103L95.485 57.8722L103.576 26.5103C103.857 25.5743 104.184 24.9658 104.511 24.6847C104.886 24.4042 105.494 24.217 106.336 24.217H110.685C111.434 24.217 111.855 24.5914 111.855 25.3871C111.855 25.6213 111.808 25.8554 111.761 26.1359C111.714 26.417 111.621 26.7914 111.434 27.3066L100.161 63.4891C99.881 64.4257 99.5538 65.0342 99.1791 65.3147C98.805 65.5958 98.197 65.783 97.4024 65.783H93.38C92.4911 65.783 91.883 65.6427 91.5084 65.3147C91.1343 64.9872 90.8071 64.3787 90.62 63.4428L83.3697 33.2509L76.1668 63.3953C75.9334 64.3318 75.6526 64.9403 75.2785 65.2678C74.9044 65.5958 74.2494 65.736 73.4079 65.736H69.385H69.3855ZM129.489 67C127.056 67 124.624 66.7189 122.286 66.1573C119.947 65.5958 118.123 64.9867 116.907 64.2854C116.158 63.8635 115.644 63.3958 115.457 62.9745C115.275 62.5613 115.179 62.1152 115.176 61.6636V59.2764C115.176 58.2935 115.55 57.8253 116.252 57.8253C116.539 57.8263 116.823 57.8739 117.094 57.9661C117.374 58.06 117.795 58.2466 118.263 58.4338C119.915 59.161 121.64 59.7102 123.408 60.0722C125.24 60.4443 127.105 60.6324 128.974 60.6337C131.921 60.6337 134.213 60.1191 135.803 59.0893C137.393 58.0594 138.235 56.5619 138.235 54.6424C138.235 53.3321 137.814 52.2553 136.972 51.3657C136.13 50.4767 134.54 49.681 132.249 48.9316L125.466 46.8256C122.052 45.7488 119.526 44.1574 117.983 42.0507C116.439 39.991 115.644 37.6978 115.644 35.2637C115.644 33.2979 116.065 31.5656 116.907 30.0675C117.749 28.57 118.871 27.2596 120.275 26.2298C121.678 25.153 123.268 24.3573 125.139 23.7957C127.01 23.2341 128.974 23 131.032 23C132.061 23 133.137 23.0469 134.166 23.1872C135.242 23.3275 136.224 23.5146 137.206 23.7018C138.142 23.936 139.031 24.1701 139.873 24.4512C140.715 24.7317 141.369 25.0128 141.837 25.2933C142.492 25.6682 142.959 26.0426 143.24 26.4639C143.521 26.8383 143.661 27.353 143.661 28.0084V30.2084C143.661 31.1913 143.287 31.7065 142.585 31.7065C142.211 31.7065 141.603 31.5187 140.808 31.1443C138.142 29.9273 135.148 29.3188 131.828 29.3188C129.161 29.3188 127.056 29.7401 125.606 30.6297C124.157 31.5187 123.408 32.8766 123.408 34.7954C123.408 36.1063 123.876 37.2295 124.811 38.1191C125.747 39.0081 127.477 39.8977 129.957 40.6934L136.598 42.8001C139.966 43.8768 142.398 45.3744 143.848 47.2933C145.298 49.2127 146 51.4126 146 53.8467C146 55.8595 145.578 57.685 144.783 59.2764C143.942 60.8679 142.819 62.2721 141.369 63.3958C139.919 64.5659 138.189 65.4086 136.177 66.0171C134.072 66.6725 131.874 67 129.489 67Z" fill="#252F3E"/>
<path d="M138.476 90.4184C123.048 101.903 100.631 108 81.3578 108C54.3459 108 30.0076 97.933 11.6248 81.2023C10.1709 79.8792 11.4837 78.0834 13.2186 79.1226C33.1023 90.7496 57.6286 97.7914 82.9992 97.7914C100.116 97.7914 118.921 94.1997 136.225 86.8268C138.804 85.6448 141.008 88.5284 138.476 90.4184ZM144.901 83.0455C142.931 80.4936 131.864 81.8167 126.846 82.4311C125.345 82.6207 125.111 81.297 126.471 80.3046C135.287 74.0657 149.778 75.8621 151.466 77.9412C153.154 80.0682 150.997 94.6719 142.743 101.667C141.478 102.754 140.258 102.187 140.821 100.769C142.696 96.0898 146.87 85.5505 144.901 83.0455Z" fill="#FF9900"/>
</svg>
