<svg width="21" height="21" viewBox="0 0 21 21" fill="none" xmlns="http://www.w3.org/2000/svg">
<path d="M19.4689 9.03778L4.19151 9.25106L8.81765 2.84152C9.03396 2.54131 9.13614 2.15674 9.10171 1.77241C9.06729 1.38808 8.89907 1.03548 8.63407 0.792162C8.36907 0.548847 8.02899 0.434755 7.68865 0.474985C7.34831 0.515215 7.03558 0.706473 6.81927 1.00668L0.447115 9.82722C0.404328 9.89727 0.366152 9.97077 0.332896 10.0471C0.333467 10.1199 0.333811 10.1635 0.244212 10.2375C0.187135 10.4052 0.157959 10.5832 0.158156 10.7626C0.160778 10.942 0.192744 11.1192 0.252442 11.2852C0.253014 11.358 0.253356 11.4016 0.344098 11.4731C0.378546 11.5485 0.417868 11.6209 0.461746 11.6898L6.97107 20.3305C7.09348 20.493 7.24618 20.623 7.41832 20.7112C7.59047 20.7993 7.77782 20.8434 7.96706 20.8405C8.26804 20.8369 8.5588 20.7144 8.78884 20.4943C8.91832 20.3703 9.02496 20.2188 9.10266 20.0484C9.18036 19.878 9.22759 19.692 9.24165 19.5012C9.25571 19.3104 9.23632 19.1185 9.18459 18.9365C9.13286 18.7544 9.04981 18.5858 8.94019 18.4402L4.21437 12.1613L19.4918 11.948C19.8334 11.9432 20.1599 11.7853 20.3993 11.5091C20.6387 11.2328 20.7715 10.8608 20.7685 10.4749C20.7655 10.089 20.6269 9.72076 20.3831 9.45125C20.1394 9.18174 19.8106 9.03301 19.4689 9.03778Z" fill="white"/>
</svg>
