<svg width="24" height="24" viewBox="0 0 24 24" fill="none" xmlns="http://www.w3.org/2000/svg">
<path d="M6 10V15H18V10H6ZM13 13H7V12H13V13ZM14.5 13C14.4011 13 14.3044 12.9707 14.2222 12.9157C14.14 12.8608 14.0759 12.7827 14.0381 12.6913C14.0002 12.6 13.9903 12.4994 14.0096 12.4025C14.0289 12.3055 14.0765 12.2164 14.1464 12.1464C14.2164 12.0765 14.3055 12.0289 14.4025 12.0096C14.4994 11.9903 14.6 12.0002 14.6913 12.0381C14.7827 12.0759 14.8608 12.14 14.9157 12.2222C14.9707 12.3044 15 12.4011 15 12.5C15 12.6326 14.9473 12.7598 14.8536 12.8536C14.7598 12.9473 14.6326 13 14.5 13ZM16.5 13C16.4011 13 16.3044 12.9707 16.2222 12.9157C16.14 12.8608 16.0759 12.7827 16.0381 12.6913C16.0002 12.6 15.9903 12.4994 16.0096 12.4025C16.0289 12.3055 16.0765 12.2164 16.1464 12.1464C16.2164 12.0765 16.3055 12.0289 16.4025 12.0096C16.4994 11.9903 16.6 12.0002 16.6913 12.0381C16.7827 12.0759 16.8608 12.14 16.9157 12.2222C16.9707 12.3044 17 12.4011 17 12.5C17 12.6326 16.9473 12.7598 16.8536 12.8536C16.7598 12.9473 16.6326 13 16.5 13ZM6 17V22H18V17H6ZM13 20H7V19H13V20ZM14.5 20C14.4011 20 14.3044 19.9707 14.2222 19.9157C14.14 19.8608 14.0759 19.7827 14.0381 19.6913C14.0002 19.6 13.9903 19.4994 14.0096 19.4025C14.0289 19.3055 14.0765 19.2164 14.1464 19.1464C14.2164 19.0765 14.3055 19.0289 14.4025 19.0096C14.4994 18.9903 14.6 19.0002 14.6913 19.0381C14.7827 19.0759 14.8608 19.14 14.9157 19.2222C14.9707 19.3044 15 19.4011 15 19.5C15 19.6326 14.9473 19.7598 14.8536 19.8536C14.7598 19.9473 14.6326 20 14.5 20ZM16.5 20C16.4011 20 16.3044 19.9707 16.2222 19.9157C16.14 19.8608 16.0759 19.7827 16.0381 19.6913C16.0002 19.6 15.9903 19.4994 16.0096 19.4025C16.0289 19.3055 16.0765 19.2164 16.1464 19.1464C16.2164 19.0765 16.3055 19.0289 16.4025 19.0096C16.4994 18.9903 16.6 19.0002 16.6913 19.0381C16.7827 19.0759 16.8608 19.14 16.9157 19.2222C16.9707 19.3044 17 19.4011 17 19.5C17 19.6326 16.9473 19.7598 16.8536 19.8536C16.7598 19.9473 16.6326 20 16.5 20Z" fill="#F24E1E"/>
<path d="M22.9649 8.00002C22.5214 7.45103 21.9737 6.99521 21.3533 6.65883C20.7328 6.32244 20.052 6.11213 19.3499 6.04002C19.0491 4.51624 18.2822 3.12363 17.1552 2.05485C16.0282 0.986076 14.5969 0.293982 13.0593 0.0743292C11.5217 -0.145324 9.95391 0.118322 8.57275 0.82879C7.19158 1.53926 6.06537 2.66142 5.34993 4.04002C4.88872 4.09487 4.43558 4.20396 3.99993 4.36502C2.83091 4.77535 1.8182 5.53865 1.10175 6.54943C0.385303 7.56022 0.000488281 8.76857 0.000488281 10.0075C0.000488281 11.2465 0.385303 12.4548 1.10175 13.4656C1.8182 14.4764 2.83091 15.2397 3.99993 15.65V8.00002H19.9999V15.9C21.129 15.669 22.1438 15.0552 22.8726 14.1624C23.6014 13.2696 23.9996 12.1525 23.9999 11C23.9967 9.91299 23.6326 8.85781 22.9649 8.00002V8.00002Z" fill="#F24E1E"/>
</svg>
