<svg width="183" height="183" viewBox="0 0 183 183" fill="none" xmlns="http://www.w3.org/2000/svg">
<path d="M50.4208 49.8218L38.593 37.994L38.6431 123.489L38.7846 127.485C38.8432 129.365 39.1921 131.487 39.7739 133.686L133.493 166.733L156.92 156.353L156.928 156.325L50.4208 49.8218Z" fill="#00D2B8"/>
<path d="M39.7739 133.686L39.7796 133.692C39.7739 133.653 39.7539 133.61 39.7539 133.57C39.7539 133.61 39.7596 133.647 39.7739 133.686ZM156.92 156.354L133.493 166.733L39.7796 133.692C41.5696 140.56 45.5327 148.28 49.7975 152.502L80.3813 182.911L148.384 183L156.928 156.325L156.92 156.354Z" fill="#55DDCA"/>
<path d="M2.16881 93.0126C-0.859269 96.2451 0.644762 102.913 5.52 107.826L26.5493 129.029L39.7739 133.686C39.192 131.487 38.8432 129.365 38.7845 127.485L38.643 123.489L38.593 37.994L2.16881 93.0126Z" fill="#0081C6"/>
<path d="M134.262 39.092C132.063 38.5301 129.954 38.1827 128.043 38.1226L123.82 37.9768L38.593 37.9882L156.94 156.325H156.95L167.344 132.875L134.262 39.092Z" fill="#0079B3"/>
<path d="M134.155 39.0691C134.201 39.0791 134.236 39.092 134.266 39.0963L134.262 39.092C134.236 39.0791 134.201 39.0791 134.155 39.0691ZM153.061 49.1327C148.766 44.8021 141.147 40.8662 134.266 39.0963L167.344 132.875L156.95 156.325H156.94L182.34 148.213L182.394 78.5756L153.061 49.1327Z" fill="#00A4E4"/>
<path d="M129.628 25.9474L108.43 4.90527C103.528 0.0486255 96.8571 -1.46255 93.6331 1.55695L38.593 37.9882L123.82 37.9768L128.043 38.1226C129.954 38.1827 132.063 38.5301 134.262 39.092L129.628 25.9474Z" fill="#00D2B8"/>
</svg>
