<svg width="29" height="25" viewBox="0 0 29 25" fill="none" xmlns="http://www.w3.org/2000/svg">
<g clip-path="url(#clip0_1162_306)">
<path d="M0 4.6875C0 2.96143 1.39893 1.5625 3.125 1.5625H25C26.7236 1.5625 28.125 2.96143 28.125 4.6875V20.3125C28.125 22.0361 26.7236 23.4375 25 23.4375H3.125C1.39893 23.4375 0 22.0361 0 20.3125V4.6875ZM7.8125 12.5C7.8125 11.6357 7.11426 10.9375 6.25 10.9375C5.38574 10.9375 4.6875 11.6357 4.6875 12.5C4.6875 13.3643 5.38574 14.0625 6.25 14.0625C7.11426 14.0625 7.8125 13.3643 7.8125 12.5ZM7.8125 7.8125C7.8125 6.94824 7.11426 6.25 6.25 6.25C5.38574 6.25 4.6875 6.94824 4.6875 7.8125C4.6875 8.67676 5.38574 9.375 6.25 9.375C7.11426 9.375 7.8125 8.67676 7.8125 7.8125ZM7.8125 17.1875C7.8125 16.3232 7.11426 15.625 6.25 15.625C5.38574 15.625 4.6875 16.3232 4.6875 17.1875C4.6875 18.0518 5.38574 18.75 6.25 18.75C7.11426 18.75 7.8125 18.0518 7.8125 17.1875ZM10.9375 6.64062C10.2881 6.64062 9.76562 7.16309 9.76562 7.8125C9.76562 8.46191 10.2881 8.98438 10.9375 8.98438H21.875C22.5244 8.98438 23.0469 8.46191 23.0469 7.8125C23.0469 7.16309 22.5244 6.64062 21.875 6.64062H10.9375ZM10.9375 11.3281C10.2881 11.3281 9.76562 11.8506 9.76562 12.5C9.76562 13.1494 10.2881 13.6719 10.9375 13.6719H21.875C22.5244 13.6719 23.0469 13.1494 23.0469 12.5C23.0469 11.8506 22.5244 11.3281 21.875 11.3281H10.9375ZM10.9375 16.0156C10.2881 16.0156 9.76562 16.5381 9.76562 17.1875C9.76562 17.8369 10.2881 18.3594 10.9375 18.3594H21.875C22.5244 18.3594 23.0469 17.8369 23.0469 17.1875C23.0469 16.5381 22.5244 16.0156 21.875 16.0156H10.9375Z" fill="white"/>
</g>
<defs>
<clipPath id="clip0_1162_306">
<rect width="28.125" height="25" fill="white"/>
</clipPath>
</defs>
</svg>
