<svg width="48" height="48" viewBox="0 0 48 48" fill="none" xmlns="http://www.w3.org/2000/svg">
<path fill-rule="evenodd" clip-rule="evenodd" d="M39 13C38.2044 13 37.4413 13.3161 36.8787 13.8787C36.3161 14.4413 36 15.2044 36 16V18H42V16C42 15.2044 41.6839 14.4413 41.1213 13.8787C40.5587 13.3161 39.7956 13 39 13ZM42 20H36V36.5L39 41L42 36.5V20ZM6 9V39C6 39.7956 6.31607 40.5587 6.87868 41.1213C7.44129 41.6839 8.20435 42 9 42H31C31.7956 42 32.5587 41.6839 33.1213 41.1213C33.6839 40.5587 34 39.7956 34 39V9C34 8.20435 33.6839 7.44129 33.1213 6.87868C32.5587 6.31607 31.7956 6 31 6H9C8.20435 6 7.44129 6.31607 6.87868 6.87868C6.31607 7.44129 6 8.20435 6 9ZM20 15C20 14.7348 20.1054 14.4804 20.2929 14.2929C20.4804 14.1054 20.7348 14 21 14H29C29.2652 14 29.5196 14.1054 29.7071 14.2929C29.8946 14.4804 30 14.7348 30 15C30 15.2652 29.8946 15.5196 29.7071 15.7071C29.5196 15.8946 29.2652 16 29 16H21C20.7348 16 20.4804 15.8946 20.2929 15.7071C20.1054 15.5196 20 15.2652 20 15ZM21 18C20.7348 18 20.4804 18.1054 20.2929 18.2929C20.1054 18.4804 20 18.7348 20 19C20 19.2652 20.1054 19.5196 20.2929 19.7071C20.4804 19.8946 20.7348 20 21 20H29C29.2652 20 29.5196 19.8946 29.7071 19.7071C29.8946 19.5196 30 19.2652 30 19C30 18.7348 29.8946 18.4804 29.7071 18.2929C29.5196 18.1054 29.2652 18 29 18H21ZM20 28C20 27.7348 20.1054 27.4804 20.2929 27.2929C20.4804 27.1054 20.7348 27 21 27H29C29.2652 27 29.5196 27.1054 29.7071 27.2929C29.8946 27.4804 30 27.7348 30 28C30 28.2652 29.8946 28.5196 29.7071 28.7071C29.5196 28.8946 29.2652 29 29 29H21C20.7348 29 20.4804 28.8946 20.2929 28.7071C20.1054 28.5196 20 28.2652 20 28ZM21 31C20.7348 31 20.4804 31.1054 20.2929 31.2929C20.1054 31.4804 20 31.7348 20 32C20 32.2652 20.1054 32.5196 20.2929 32.7071C20.4804 32.8946 20.7348 33 21 33H29C29.2652 33 29.5196 32.8946 29.7071 32.7071C29.8946 32.5196 30 32.2652 30 32C30 31.7348 29.8946 31.4804 29.7071 31.2929C29.5196 31.1054 29.2652 31 29 31H21ZM12 28V31H15V28H12ZM11 26H16C16.2652 26 16.5196 26.1054 16.7071 26.2929C16.8946 26.4804 17 26.7348 17 27V32C17 32.2652 16.8946 32.5196 16.7071 32.7071C16.5196 32.8946 16.2652 33 16 33H11C10.7348 33 10.4804 32.8946 10.2929 32.7071C10.1054 32.5196 10 32.2652 10 32V27C10 26.7348 10.1054 26.4804 10.2929 26.2929C10.4804 26.1054 10.7348 26 11 26V26ZM17.707 15.707C17.8892 15.5184 17.99 15.2658 17.9877 15.0036C17.9854 14.7414 17.8802 14.4906 17.6948 14.3052C17.5094 14.1198 17.2586 14.0146 16.9964 14.0123C16.7342 14.01 16.4816 14.1108 16.293 14.293L13 17.586L11.707 16.293C11.5184 16.1108 11.2658 16.01 11.0036 16.0123C10.7414 16.0146 10.4906 16.1198 10.3052 16.3052C10.1198 16.4906 10.0146 16.7414 10.0123 17.0036C10.01 17.2658 10.1108 17.5184 10.293 17.707L13 20.414L17.707 15.707Z" fill="#F24E1E"/>
</svg>
