<svg width="42" height="50" viewBox="0 0 42 50" fill="none" xmlns="http://www.w3.org/2000/svg">
<path d="M12.2258 36.5361L19.9133 44.2284L41.0645 23.0723H25.6849L12.2258 36.5361Z" fill="#39CEFD"/>
<path d="M25.6849 0H41.0646L8.37975 32.6896L0.6875 24.9974L25.6849 0Z" fill="#39CEFD"/>
<path d="M19.9133 44.2284L25.6849 49.9952H41.0646L27.6056 36.5361L19.9133 44.2284Z" fill="#03569B"/>
<path d="M31.3217 40.2764L27.6056 36.5361L19.9133 44.2284L31.3217 40.2764Z" fill="url(#paint0_linear_1420_1357)"/>
<path d="M12.2251 36.5333L19.9175 28.8408L27.6105 36.5333L19.9175 44.2258L12.2251 36.5333Z" fill="#16B9FD"/>
<path d="M41.0646 23.0719L27.6056 36.5358L41.0646 49.9996H25.6849L12.2211 36.5358L25.6849 23.0719H41.0646ZM25.6849 0L0.6875 24.9974L8.37975 32.6896L41.0646 0H25.6849V0Z" fill="url(#paint1_radial_1420_1357)"/>
<defs>
<linearGradient id="paint0_linear_1420_1357" x1="22.1582" y1="45.7129" x2="27.8872" y2="39.9839" gradientUnits="userSpaceOnUse">
<stop stop-color="#1A237E" stop-opacity="0.4"/>
<stop offset="1" stop-color="#1A237E" stop-opacity="0"/>
</linearGradient>
<radialGradient id="paint1_radial_1420_1357" cx="0" cy="0" r="1" gradientUnits="userSpaceOnUse" gradientTransform="translate(1.82183 3.40783) scale(61.1684 61.1684)">
<stop stop-color="white" stop-opacity="0.1"/>
<stop offset="1" stop-color="white" stop-opacity="0"/>
</radialGradient>
</defs>
</svg>
