<svg width="130" height="183" viewBox="0 0 130 183" fill="none" xmlns="http://www.w3.org/2000/svg">
<g clip-path="url(#clip0_139_226)">
<path d="M129.547 35.873L117.766 167.856L64.8074 182.538L11.9949 167.876L0.225586 35.873H129.547Z" fill="#E44D26"/>
<path d="M64.8865 171.315L107.68 159.452L117.747 46.666H64.8865V171.315Z" fill="#F16529"/>
<path d="M41.9835 79.0459H64.8864V62.8562H24.2903L24.6776 67.1995L28.6569 111.814H64.8864V95.6244H43.4632L41.9835 79.0459V79.0459ZM45.6323 119.909H29.3803L31.6483 145.329L64.8119 154.535L64.8864 154.515V137.671L64.8154 137.69L46.7851 132.821L45.6323 119.909Z" fill="#EBEBEB"/>
<path d="M16 4H23.9555V10.9347H31.2332V4H39.1892V25H31.2337V17.968H23.956V25H16.0005V4H16ZM49.6505 10.9641H42.6479V4H64.6146V10.9641H57.6075V25H49.652V10.9641H49.6515H49.6505ZM68.1007 4H76.3959L81.4986 11.3788L86.5965 4H94.8951V25H86.9719V14.5913L81.4986 22.0579H81.3614L75.8847 14.5913V25H68.1007V4ZM98.8543 4H106.812V18.0588H118V25H98.8538V4H98.8543Z" fill="#F96512"/>
<path d="M64.8306 111.814H84.7664L82.8868 132.811L64.8301 137.684V154.528L98.02 145.329L98.2633 142.594L102.068 99.9718L102.463 95.6244H64.8306V111.814ZM64.8306 79.0063V79.0459H103.936L104.261 75.4072L104.999 67.1995L105.386 62.8562H64.8306V79.0063Z" fill="white"/>
</g>
<defs>
<clipPath id="clip0_139_226">
<rect width="129.773" height="183" rx="25" fill="white"/>
</clipPath>
</defs>
</svg>
