<svg width="174" height="136" viewBox="0 0 174 136" fill="none" xmlns="http://www.w3.org/2000/svg">
<defs>
<linearGradient id="paint0_linear_269_4" x1="63.4397" y1="123.177" x2="77.3339" y2="109.282" gradientUnits="userSpaceOnUse">
<stop stop-color="#1A237E" stop-opacity="0.4"/>
<stop offset="1" stop-color="#1A237E" stop-opacity="0"/>
</linearGradient>
<radialGradient id="paint1_radial_269_4" cx="0" cy="0" r="1" gradientUnits="userSpaceOnUse" gradientTransform="translate(14.1192 20.5775) scale(148.348)">
<stop stop-color="white" stop-opacity="0.1"/>
<stop offset="1" stop-color="white" stop-opacity="0"/>
</radialGradient>
</defs>
<path d="M169.13 77.5052L164.446 129.979L143.39 135.816L122.393 129.987L117.714 77.5052H169.13Z" fill="#E44D26"/>
<path d="M143.422 131.354L160.435 126.638L164.438 81.7964H143.422V131.354Z" fill="#F16529"/>
<path d="M134.316 94.67H143.422V88.2333H127.281L127.435 89.9601L129.018 107.698H143.422V101.261H134.904L134.316 94.67ZM135.767 110.916H129.305L130.207 121.023L143.392 124.683L143.422 124.675V117.978L143.393 117.985L136.225 116.05L135.767 110.916Z" fill="#EBEBEB"/>
<path d="M143.399 107.698H151.326L150.578 116.046L143.399 117.983V124.68L156.595 121.023L156.692 119.935L158.204 102.99L158.361 101.261H143.399V107.698ZM143.399 94.6542V94.6699H158.947L159.076 93.2233L159.37 89.9601L159.523 88.2333H143.399V94.6544V94.6542Z" fill="white"/>
<path d="M120.787 19.8082L116.084 15.1057L116.104 49.0969L116.161 50.6856C116.184 51.4331 116.323 52.2766 116.554 53.1509L153.815 66.2898L163.129 62.1631L163.132 62.1517L120.787 19.8082Z" fill="#00D2B8"/>
<path d="M116.554 53.1509L116.556 53.1532C116.554 53.1379 116.546 53.1208 116.546 53.1049C116.546 53.1208 116.548 53.1356 116.554 53.1509ZM163.129 62.1632L153.815 66.2899L116.556 53.1532C117.268 55.8839 118.844 58.9533 120.539 60.6319L132.699 72.7221L159.735 72.7573L163.132 62.1518L163.129 62.1632Z" fill="#55DDCA"/>
<path d="M101.603 36.98C100.399 38.2652 100.997 40.9163 102.935 42.8693L111.296 51.2995L116.554 53.1509C116.323 52.2766 116.184 51.4331 116.161 50.6856L116.104 49.0969L116.085 15.1057L101.603 36.98Z" fill="#0081C6"/>
<path d="M154.121 15.5422C153.246 15.3188 152.408 15.1807 151.648 15.1568L149.969 15.0988L116.084 15.1034L163.137 62.1517H163.141L167.273 52.8285L154.121 15.5422Z" fill="#0079B3"/>
<path d="M154.078 15.5331C154.096 15.5371 154.11 15.5422 154.122 15.5439L154.121 15.5422C154.11 15.5371 154.096 15.5371 154.078 15.5331ZM161.595 19.5342C159.887 17.8124 156.858 16.2476 154.122 15.5439L167.273 52.8285L163.141 62.1517H163.137L173.235 58.9265L173.257 31.2401L161.595 19.5342Z" fill="#00A4E4"/>
<path d="M152.278 10.3162L143.85 1.95022C141.901 0.0193095 139.249 -0.581505 137.967 0.618988L116.084 15.1034L149.969 15.0988L151.648 15.1568C152.408 15.1807 153.246 15.3188 154.121 15.5422L152.278 10.3162Z" fill="#00D2B8"/>
<path d="M39.3513 100.921L57.9952 119.576L109.292 68.2677H71.9927L39.3513 100.921Z" fill="#39CEFD"/>
<path d="M71.9929 12.3127H109.292L30.0237 91.5929L11.3682 72.9374L71.9929 12.3127Z" fill="#39CEFD"/>
<path d="M57.9954 119.576L71.9929 133.562H109.292L76.6509 100.921L57.9954 119.576Z" fill="#03569B"/>
<path d="M85.6635 109.992L76.6509 100.921L57.9954 119.576L85.6635 109.992Z" fill="url(#paint0_linear_269_4)"/>
<path d="M39.3494 100.914L58.0054 82.2582L76.6626 100.914L58.0054 119.571L39.3494 100.914Z" fill="#16B9FD"/>
<path d="M109.292 68.2677L76.6509 100.921L109.292 133.574H71.9929L39.3398 100.921L71.9929 68.2677H109.292ZM71.9929 12.3127L11.3682 72.9374L30.0237 91.5929L109.292 12.3127H71.9929Z" fill="url(#paint1_radial_269_4)"/>

</svg>
