<svg width="100" height="85" viewBox="0 0 100 85" fill="none" xmlns="http://www.w3.org/2000/svg">
<g clip-path="url(#clip0_139_353)">
<path d="M97.4821 48.4408L94.7823 81.237L82.6466 84.8851L70.5443 81.242L67.8473 48.4408H97.4821Z" fill="#E44D26"/>
<path d="M82.6648 82.0966L92.4711 79.1486L94.7781 51.1227H82.6648V82.0966Z" fill="#F16529"/>
<path d="M77.4164 59.1687H82.6648V55.1458H73.3619L73.4507 56.2251L74.3626 67.3112H82.6648V63.2883H77.7555L77.4164 59.1687V59.1687ZM78.2526 69.3228H74.5283L75.0481 75.6394L82.6477 77.9269L82.6648 77.9219V73.7363L82.6485 73.741L78.5168 72.5312L78.2526 69.3228Z" fill="#EBEBEB"/>
<path d="M82.652 67.3112H87.2204L86.7896 72.5287L82.6519 73.7397V77.925L90.2575 75.6394L90.3133 74.9597L91.1852 64.3686L91.2757 63.2883H82.652V67.3112ZM82.652 59.1589V59.1687H91.6133L91.6876 58.2646L91.8568 56.2251L91.9454 55.1458H82.652V59.159V59.1589Z" fill="white"/>
</g>
<g clip-path="url(#clip1_139_353)">
<path d="M69.6187 12.3801L66.9083 9.44104L66.9198 30.6856L66.9522 31.6785C66.9657 32.1457 67.0456 32.6729 67.1789 33.2193L88.6552 41.4311L94.0235 38.8519L94.0255 38.8448L69.6187 12.3801Z" fill="#00D2B8"/>
<path d="M67.179 33.2193L67.1803 33.2207C67.179 33.2111 67.1744 33.2004 67.1744 33.1905C67.1744 33.2004 67.1757 33.2097 67.179 33.2193V33.2193ZM94.0236 38.8519L88.6552 41.4311L67.1803 33.2207C67.5905 34.9274 68.4987 36.8458 69.476 37.8948L76.4844 45.4512L92.0677 45.4732L94.0256 38.8448L94.0236 38.8519V38.8519Z" fill="#55DDCA"/>
<path d="M58.5616 23.1125C57.8677 23.9157 58.2123 25.5727 59.3295 26.7934L64.1485 32.0622L67.179 33.2193C67.0457 32.6729 66.9657 32.1457 66.9523 31.6785L66.9198 30.6856L66.9084 9.44104L58.5616 23.1125V23.1125Z" fill="#0081C6"/>
<path d="M88.8314 9.71387C88.3275 9.57425 87.8443 9.48793 87.4063 9.473L86.4385 9.43677L66.9083 9.43961L94.0281 38.8448H94.0304L96.4122 33.0178L88.8314 9.71387Z" fill="#0079B3"/>
<path d="M88.8069 9.70819C88.8174 9.71068 88.8256 9.71388 88.8324 9.71494L88.8315 9.71388C88.8256 9.71068 88.8174 9.71068 88.8069 9.70819ZM93.1393 12.2089C92.1552 11.1328 90.4093 10.1548 88.8324 9.71494L96.4123 33.0179L94.0305 38.8448H94.0282L99.8487 36.8291L99.8611 19.5251L93.1393 12.2089V12.2089Z" fill="#00A4E4"/>
<path d="M87.7696 6.44763L82.912 1.21892C81.7885 0.0120991 80.2599 -0.36341 79.5211 0.386898L66.9083 9.43963L86.4385 9.43678L87.4063 9.47302C87.8443 9.48794 88.3275 9.57427 88.8314 9.71389L87.7696 6.44763V6.44763Z" fill="#00D2B8"/>
</g>
<g clip-path="url(#clip2_139_353)">
<path d="M22.6813 63.0756L33.4272 74.7353L62.9935 42.6674H41.495L22.6813 63.0756Z" fill="#39CEFD"/>
<path d="M41.495 7.69556H62.9935L17.305 57.2457L6.55237 45.586L41.495 7.69556Z" fill="#39CEFD"/>
<path d="M33.4271 74.7353L41.4949 83.4764H62.9934L44.1797 63.0756L33.4271 74.7353Z" fill="#03569B"/>
<path d="M49.3744 68.7449L44.1797 63.0756L33.4271 74.7353L49.3744 68.7449Z" fill="url(#paint0_linear_139_353)"/>
<path d="M22.6801 63.0715L33.4329 51.4114L44.1865 63.0715L33.4329 74.7316L22.6801 63.0715Z" fill="#16B9FD"/>
<path d="M62.9935 42.6674L44.1798 63.0756L62.9935 83.4837H41.495L22.6746 63.0756L41.495 42.6674H62.9935ZM41.495 7.69556L6.55237 45.586L17.305 57.2457L62.9935 7.69556H41.495V7.69556Z" fill="url(#paint1_radial_139_353)"/>
</g>
<defs>
<linearGradient id="paint0_linear_139_353" x1="36.5651" y1="76.9854" x2="45.2206" y2="69.0034" gradientUnits="userSpaceOnUse">
<stop stop-color="#1A237E" stop-opacity="0.4"/>
<stop offset="1" stop-color="#1A237E" stop-opacity="0"/>
</linearGradient>
<radialGradient id="paint1_radial_139_353" cx="0" cy="0" r="1" gradientUnits="userSpaceOnUse" gradientTransform="translate(8.13799 12.8611) scale(85.5042 92.7176)">
<stop stop-color="white" stop-opacity="0.1"/>
<stop offset="1" stop-color="white" stop-opacity="0"/>
</radialGradient>
<clipPath id="clip0_139_353">
<rect width="29.7382" height="45.4733" fill="white" transform="translate(67.7957 39.5268)"/>
</clipPath>
<clipPath id="clip1_139_353">
<rect width="41.9355" height="45.4733" fill="white" transform="translate(58.0646)"/>
</clipPath>
<clipPath id="clip2_139_353">
<rect width="69.8925" height="75.7888" fill="white" transform="translate(0 7.6955)"/>
</clipPath>
</defs>
</svg>
