<svg width="24" height="24" viewBox="0 0 24 24" fill="none" xmlns="http://www.w3.org/2000/svg">
<path d="M21 21H3V3H21V21ZM9.1 17.232L7.732 18.076C7.945 18.544 8.291 18.939 8.726 19.213C9.199 19.484 9.736 19.623 10.281 19.613C10.567 19.611 10.851 19.578 11.13 19.513C11.4181 19.4421 11.6879 19.3113 11.9219 19.1289C12.1559 18.9466 12.3488 18.717 12.488 18.455C12.768 17.795 12.872 17.073 12.788 16.361V15.946C12.793 14.919 12.788 13.874 12.788 12.862V11.269H11.1V16.166C11.15 16.666 11.114 17.169 10.993 17.656C10.9219 17.7931 10.8121 17.9063 10.6771 17.9813C10.5421 18.0564 10.388 18.09 10.234 18.078C10.093 18.0776 9.9528 18.0564 9.818 18.015C9.54717 17.8734 9.32884 17.6488 9.195 17.374L9.162 17.318C9.131 17.265 9.11 17.228 9.1 17.228V17.232V17.232ZM15.049 17.032L13.676 17.819C13.788 18.065 13.944 18.289 14.134 18.481C14.181 18.533 14.234 18.589 14.283 18.651C14.954 19.251 15.832 19.569 16.732 19.538C17.2991 19.5939 17.869 19.4641 18.3559 19.1681C18.8428 18.8722 19.2205 18.4261 19.432 17.897V17.889C19.546 17.489 19.564 17.069 19.485 16.661L19.519 16.71C19.371 15.781 18.698 15.136 17.267 14.555C17.156 14.503 17.041 14.455 16.929 14.405C16.484 14.213 16.064 14.033 15.918 13.705C15.8529 13.5363 15.8411 13.3517 15.884 13.176C15.9342 13.0054 16.0424 12.8578 16.19 12.7586C16.3375 12.6595 16.5151 12.615 16.692 12.633C16.803 12.633 16.914 12.649 17.021 12.681C17.351 12.791 17.616 13.038 17.753 13.357C18.528 12.85 18.528 12.85 19.069 12.513C18.9452 12.3017 18.798 12.1052 18.63 11.927C18.3766 11.6554 18.0651 11.4445 17.7188 11.3101C17.3725 11.1758 17.0003 11.1214 16.63 11.151H16.51L15.982 11.218C15.4861 11.3293 15.0375 11.5929 14.699 11.972C14.502 12.2183 14.3566 12.5017 14.2713 12.8053C14.186 13.1089 14.1625 13.4266 14.2023 13.7394C14.2422 14.0523 14.3445 14.3539 14.5031 14.6265C14.6618 14.899 14.8736 15.1369 15.126 15.326C15.564 15.626 16.036 15.872 16.533 16.059C17.174 16.329 17.727 16.559 17.839 16.98C17.8724 17.1003 17.8776 17.2267 17.8542 17.3493C17.8308 17.4719 17.7794 17.5875 17.704 17.687C17.5699 17.8194 17.4086 17.9211 17.2312 17.985C17.0539 18.0489 16.8648 18.0735 16.677 18.057C16.5724 18.0567 16.4678 18.05 16.364 18.037C16.0846 17.9744 15.8221 17.8518 15.5947 17.6778C15.3673 17.5037 15.1804 17.2824 15.047 17.029L15.049 17.032V17.032Z" fill="#F24E1E"/>
</svg>
