<svg width="100" height="85" viewBox="0 0 100 85" fill="none" xmlns="http://www.w3.org/2000/svg">
<path d="M50 84.8424C48.4473 84.8424 46.998 84.5306 45.6523 83.985L31.884 77.8274C29.8137 76.97 30.8488 76.6582 31.4699 76.5024C34.2648 75.8009 34.7824 75.645 37.6809 74.3977C37.9918 74.2418 38.4059 74.3197 38.716 74.4756L49.2754 79.2303C49.6895 79.3862 50.207 79.3862 50.5176 79.2303L91.8223 61.2253C92.2363 61.0694 92.4434 60.7577 92.4434 60.368V24.4353C92.4434 24.0456 92.2363 23.7338 91.8223 23.5779L50.5176 5.65059C50.1035 5.49471 49.5859 5.49471 49.2754 5.65059L7.9707 23.5782C7.55664 23.7341 7.34961 24.1238 7.34961 24.4356V60.368C7.34961 60.6797 7.55664 61.0694 7.9707 61.2253L19.2547 66.1356C25.3625 68.4738 29.1922 65.7459 29.1922 63.0179V27.5529C29.1922 27.0853 29.7102 26.6177 30.4348 26.6177H35.7145C36.3355 26.6177 36.9566 27.0074 36.9566 27.5529V63.0177C36.9566 69.1753 32.5051 72.7606 24.741 72.7606C22.3602 72.7606 20.4969 72.7606 15.2176 70.8121L4.34766 66.1356C1.65625 64.9662 0 62.7838 0 60.4456V24.5135C0 22.1753 1.65625 19.9929 4.34766 18.8235L45.6523 0.818535C48.2402 -0.272642 51.7598 -0.272642 54.3477 0.818535L95.6523 18.8235C98.3437 19.9927 100 22.175 100 24.5135V60.4459C100 62.7841 98.3437 64.9665 95.6523 66.1356L54.3477 84.1412C53.002 84.6088 51.4492 84.8427 50 84.8427V84.8424ZM62.7328 60.1338C44.6168 60.1338 40.8902 53.8985 40.8902 48.5982C40.8902 48.1306 41.4078 47.6629 42.1324 47.6629H47.5152C48.1363 47.6629 48.6543 47.9747 48.6543 48.4424C49.4824 52.5732 51.8633 54.6 62.8363 54.6C71.532 54.6 75.259 53.1191 75.259 49.6118C75.259 47.585 74.2238 46.1041 60.6625 45.0906C49.3789 44.2332 42.3395 42.3627 42.3395 35.5818C42.3395 29.2679 49.3785 25.5268 61.1801 25.5268C74.4305 25.5268 80.9523 28.9562 81.7805 36.4388C81.7805 36.6727 81.677 36.9065 81.4699 37.1403C81.2629 37.2962 80.9523 37.4521 80.6418 37.4521H75.259C74.741 37.4521 74.2238 37.1403 74.1199 36.7506C72.8777 32.4638 69.6688 31.0609 61.1801 31.0609C51.6566 31.0609 50.5176 33.555 50.5176 35.4256C50.5176 37.6862 51.8633 38.3874 64.6996 39.6344C77.4328 40.8815 83.4367 42.6744 83.4367 49.3777C83.3332 56.2368 75.8801 60.1338 62.7328 60.1338V60.1338Z" fill="#539E43"/>
</svg>
