<svg width="32" height="32" viewBox="0 0 32 32" fill="none" xmlns="http://www.w3.org/2000/svg">
<path d="M27 24C26.5545 24.002 26.1153 24.1046 25.715 24.3L21.415 20H18V22H20.586L24.301 25.715C24.1054 26.1153 24.0026 26.5545 24 27C24 27.5933 24.1759 28.1734 24.5056 28.6667C24.8352 29.1601 25.3038 29.5446 25.8519 29.7716C26.4001 29.9987 27.0033 30.0581 27.5853 29.9424C28.1672 29.8266 28.7018 29.5409 29.1213 29.1213C29.5409 28.7018 29.8266 28.1672 29.9424 27.5853C30.0581 27.0033 29.9987 26.4001 29.7716 25.852C29.5446 25.3038 29.1601 24.8352 28.6667 24.5056C28.1734 24.1759 27.5933 24 27 24ZM27 28C26.8022 28 26.6089 27.9414 26.4444 27.8315C26.28 27.7216 26.1518 27.5654 26.0761 27.3827C26.0004 27.2 25.9806 26.9989 26.0192 26.8049C26.0578 26.6109 26.153 26.4327 26.2929 26.2929C26.4327 26.153 26.6109 26.0578 26.8049 26.0192C26.9989 25.9806 27.2 26.0004 27.3827 26.0761C27.5654 26.1518 27.7216 26.28 27.8315 26.4444C27.9414 26.6089 28 26.8022 28 27C28 27.2652 27.8946 27.5196 27.7071 27.7071C27.5196 27.8946 27.2652 28 27 28ZM27 13C26.3816 13.0018 25.7789 13.1951 25.2747 13.5532C24.7704 13.9113 24.3895 14.4167 24.184 15H18V17H24.184C24.3682 17.5172 24.6911 17.9738 25.1172 18.3199C25.5434 18.666 26.0565 18.8883 26.6005 18.9625C27.1444 19.0367 27.6983 18.96 28.2016 18.7407C28.7049 18.5214 29.1383 18.168 29.4543 17.7191C29.7704 17.2702 29.9569 16.743 29.9936 16.1952C30.0304 15.6475 29.9158 15.1001 29.6625 14.6131C29.4091 14.126 29.0268 13.7179 28.5573 13.4334C28.0877 13.149 27.549 12.999 27 13V13ZM27 17C26.8022 17 26.6089 16.9414 26.4444 16.8315C26.28 16.7216 26.1518 16.5654 26.0761 16.3827C26.0004 16.2 25.9806 15.9989 26.0192 15.8049C26.0578 15.6109 26.153 15.4327 26.2929 15.2929C26.4327 15.153 26.6109 15.0578 26.8049 15.0192C26.9989 14.9806 27.2 15.0004 27.3827 15.0761C27.5654 15.1518 27.7216 15.28 27.8315 15.4444C27.9414 15.6089 28 15.8022 28 16C28 16.2652 27.8946 16.5196 27.7071 16.7071C27.5196 16.8946 27.2652 17 27 17ZM27 2C26.2046 2.0008 25.442 2.31712 24.8796 2.87956C24.3171 3.442 24.0008 4.2046 24 5C24.0034 5.47906 24.1228 5.95016 24.348 6.373L20.596 10H18V12H21.404L25.804 7.748C26.2127 7.92624 26.6561 8.01108 27.1017 7.99637C27.5474 7.98165 27.9841 7.86774 28.3802 7.66293C28.7763 7.45813 29.1217 7.16757 29.3914 6.81243C29.661 6.45728 29.848 6.04648 29.9389 5.60992C30.0297 5.17337 30.022 4.72206 29.9165 4.28884C29.8109 3.85562 29.61 3.4514 29.3285 3.1056C29.047 2.75981 28.6919 2.48113 28.2891 2.28988C27.8863 2.09862 27.4459 1.99959 27 2ZM27 6C26.8022 6 26.6089 5.94135 26.4444 5.83147C26.28 5.72159 26.1518 5.56541 26.0761 5.38268C26.0004 5.19996 25.9806 4.99889 26.0192 4.80491C26.0578 4.61093 26.153 4.43275 26.2929 4.29289C26.4327 4.15304 26.6109 4.0578 26.8049 4.01922C26.9989 3.98063 27.2 4.00043 27.3827 4.07612C27.5654 4.15181 27.7216 4.27998 27.8315 4.44443C27.9414 4.60888 28 4.80222 28 5C28 5.26522 27.8946 5.51957 27.7071 5.70711C27.5196 5.89464 27.2652 6 27 6Z" fill="#F24E1E"/>
<path d="M18 6H20V4H18C17.4301 4.0019 16.8673 4.12629 16.3497 4.36473C15.8321 4.60318 15.3718 4.9501 15 5.382C14.6282 4.9501 14.1679 4.60318 13.6503 4.36473C13.1327 4.12629 12.5699 4.0019 12 4H11C8.61386 4.00265 6.32622 4.95171 4.63896 6.63896C2.95171 8.32622 2.00265 10.6139 2 13V19C2.00265 21.3861 2.95171 23.6738 4.63896 25.361C6.32622 27.0483 8.61386 27.9974 11 28H12C12.5699 27.9981 13.1327 27.8737 13.6503 27.6353C14.1679 27.3968 14.6282 27.0499 15 26.618C15.3718 27.0499 15.8321 27.3968 16.3497 27.6353C16.8673 27.8737 17.4301 27.9981 18 28H20V26H18C17.4697 25.9995 16.9613 25.7886 16.5864 25.4136C16.2114 25.0387 16.0005 24.5303 16 24V8C16.0005 7.46973 16.2114 6.96133 16.5864 6.58637C16.9613 6.21141 17.4697 6.00053 18 6V6ZM12 26H11C9.31844 25.997 7.69408 25.3892 6.42358 24.2876C5.15309 23.186 4.32125 21.6642 4.08 20H6V18H4V14H7C7.79541 13.9992 8.55801 13.6829 9.12044 13.1204C9.68288 12.558 9.99921 11.7954 10 11V9H8V11C8 11.2652 7.89464 11.5196 7.70711 11.7071C7.51957 11.8946 7.26522 12 7 12H4.08C4.32125 10.3358 5.15309 8.81398 6.42358 7.7124C7.69408 6.61081 9.31844 6.00301 11 6H12C12.5303 6.00053 13.0387 6.21141 13.4136 6.58637C13.7886 6.96133 13.9995 7.46973 14 8V12H12V14H14V18H12C11.2046 18.0008 10.442 18.3171 9.87956 18.8796C9.31712 19.442 9.00079 20.2046 9 21V23H11V21C11 20.7348 11.1054 20.4804 11.2929 20.2929C11.4804 20.1054 11.7348 20 12 20H14V24C13.9995 24.5303 13.7886 25.0387 13.4136 25.4136C13.0387 25.7886 12.5303 25.9995 12 26V26Z" fill="#F24E1E"/>
</svg>
