<svg width="15" height="15" viewBox="0 0 15 15" fill="none" xmlns="http://www.w3.org/2000/svg">
<path d="M7.49991 0.500111L7.86891 0.162111C7.82206 0.110876 7.76506 0.0699583 7.70153 0.0419638C7.638 0.0139693 7.56934 -0.000488281 7.49991 -0.000488281C7.43049 -0.000488281 7.36182 0.0139693 7.29829 0.0419638C7.23476 0.0699583 7.17776 0.110876 7.13091 0.162111L7.49991 0.500111ZM7.49991 13.5001L7.10691 13.8091C7.1537 13.8686 7.21338 13.9167 7.28146 13.9498C7.34954 13.9828 7.42423 14 7.49991 14C7.57559 14 7.65029 13.9828 7.71837 13.9498C7.78644 13.9167 7.84612 13.8686 7.89291 13.8091L7.49991 13.5001ZM4.62291 9.83811L4.22991 10.1481L4.62291 9.83811ZM4.86891 3.37111L4.49991 3.03211L4.86891 3.36911V3.37111ZM10.1309 3.37111L10.4999 3.03311L10.1309 3.37011V3.37111ZM10.3769 9.83811L10.7699 10.1481L10.3769 9.83811ZM7.99991 15.0001V0.500111H6.99991V15.0001H7.99991ZM7.89291 13.1911L5.01591 9.53011L4.22991 10.1481L7.10691 13.8101L7.89291 13.1921V13.1911ZM5.23691 3.70811L7.86991 0.838111L7.12991 0.162111L4.49991 3.03211L5.23591 3.70811H5.23691ZM7.13091 0.838111L9.76291 3.70811L10.4999 3.03311L7.86891 0.163111L7.12991 0.837111L7.13091 0.838111ZM9.98391 9.52911L7.10691 13.1911L7.89291 13.8091L10.7699 10.1471L9.98391 9.52911V9.52911ZM9.76291 3.70911C10.4835 4.49572 10.9011 5.51273 10.9414 6.57872C10.9817 7.64471 10.642 8.69035 9.98291 9.52911L10.7699 10.1471C11.5755 9.12177 11.9906 7.84356 11.9412 6.54053C11.8917 5.23751 11.3809 3.99444 10.4999 3.03311L9.76291 3.70811V3.70911ZM5.01591 9.52911C4.35694 8.69023 4.0174 7.64453 4.05788 6.57854C4.09836 5.51255 4.51622 4.4956 5.23691 3.70911L4.49991 3.03211C3.6189 3.99344 3.1081 5.23651 3.05865 6.53953C3.00919 7.84256 3.4243 9.12077 4.22991 10.1461L5.01591 9.52811V9.52911Z" fill="#F24E1E"/>
</svg>
