<svg width="143" height="163" viewBox="0 0 143 163" fill="none" xmlns="http://www.w3.org/2000/svg">
<path d="M71.5 162.698C69.2796 162.698 67.2072 162.1 65.2829 161.054L45.5941 149.246C42.6336 147.601 44.1138 147.004 45.002 146.705C48.9987 145.359 49.7389 145.061 53.8836 142.669C54.3283 142.37 54.9204 142.519 55.3639 142.818L70.4638 151.936C71.0559 152.235 71.7961 152.235 72.2401 151.936L131.306 117.409C131.898 117.11 132.194 116.512 132.194 115.765V46.8584C132.194 46.1111 131.898 45.5132 131.306 45.2143L72.2401 10.8359C71.648 10.537 70.9079 10.537 70.4638 10.8359L11.3981 45.2148C10.806 45.5138 10.5099 46.2611 10.5099 46.8589V115.765C10.5099 116.362 10.806 117.11 11.3981 117.409L27.5342 126.825C36.2684 131.309 41.7448 126.078 41.7448 120.846V52.8369C41.7448 51.9401 42.4855 51.0434 43.5217 51.0434H51.0717C51.9598 51.0434 52.848 51.7907 52.848 52.8369V120.846C52.848 132.654 46.4823 139.529 35.3797 139.529C31.975 139.529 29.3105 139.529 21.7611 135.793L6.21715 126.825C2.36844 124.582 0 120.397 0 115.913V47.0084C0 42.5245 2.36844 38.3395 6.21715 36.097L65.2829 1.56977C68.9835 -0.522726 74.0165 -0.522726 77.7171 1.56977L136.783 36.097C140.632 38.339 143 42.5239 143 47.0084V115.914C143 120.398 140.632 124.583 136.783 126.825L77.7171 161.353C75.7928 162.25 73.5724 162.698 71.5 162.698V162.698ZM89.7079 115.316C63.802 115.316 58.473 103.358 58.473 93.1944C58.473 92.2976 59.2132 91.4008 60.2494 91.4008H67.9468C68.8349 91.4008 69.5756 91.9987 69.5756 92.8954C70.7599 100.817 74.1645 104.704 89.8559 104.704C102.291 104.704 107.62 101.864 107.62 95.138C107.62 91.2513 106.14 88.4115 86.7474 86.4679C70.6118 84.8238 60.5454 81.2367 60.5454 68.2334C60.5454 56.1257 70.6113 48.9514 87.4875 48.9514C106.436 48.9514 115.762 55.5278 116.946 69.8769C116.946 70.3253 116.798 70.7737 116.502 71.2221C116.206 71.521 115.762 71.8199 115.318 71.8199H107.62C106.88 71.8199 106.14 71.2221 105.991 70.4748C104.215 62.2543 99.6263 59.5639 87.4875 59.5639C73.869 59.5639 72.2401 64.3468 72.2401 67.9339C72.2401 72.2689 74.1645 73.6135 92.5204 76.0049C110.729 78.3963 119.315 81.8346 119.315 94.689C119.166 107.842 108.509 115.316 89.7079 115.316Z" fill="#539E43"/>
</svg>
